# xmcd
#
# Track frame offsets:
#	150
#	14459
#	37610
#	63774
#	88050
#	102323
#	133565
#	174250
#	199830
#	215977
#	243369
#
# Disc length: 3560 seconds
#
# Revision: 4
# Processed by: cddbd v1.4PL0 Copyright (c) Steve Scherf et al.
# Submitted via: EasyCDDAExtractor 4.5.0.2
#
DISCID=8f0de60b
DTITLE=Indian Ropeman - Elephant Sound
DYEAR=1999
DGENRE=Big Beat
TTITLE0=Chairman Of The Board
TTITLE1=I.R.M.
TTITLE2=Stand Clear
TTITLE3=Sunshine Of Your Love
TTITLE4=Do Not Deviate From Your Present Course
TTITLE5=Your Own Enemy
TTITLE6=66 Meters
TTITLE7=Dog In The Piano (Feat. Shahin Badar)
TTITLE8=Mission To The Moog Pt. I
TTITLE9=Dominant Tonic
TTITLE10=Mission To The Moog Pt. II
EXTD=
EXTT0=
EXTT1=
EXTT2=
EXTT3=
EXTT4=
EXTT5=
EXTT6=
EXTT7=
EXTT8=
EXTT9=
EXTT10=
PLAYORDER=
